M48
; DRILL file {KiCad 9.0.6} date 2025-11-23T16:36:29+0000
; FORMAT={-:-/ absolute / metric / decimal}
; #@! TF.CreationDate,2025-11-23T16:36:29+00:00
; #@! TF.GenerationSoftware,Kicad,Pcbnew,9.0.6
; #@! TF.FileFunction,Plated,1,2,PTH
FMAT,2
METRIC
; #@! TA.AperFunction,Plated,PTH,ComponentDrill
T1C0.700
; #@! TA.AperFunction,Plated,PTH,ComponentDrill
T2C0.800
; #@! TA.AperFunction,Plated,PTH,ComponentDrill
T3C0.900
; #@! TA.AperFunction,Plated,PTH,ComponentDrill
T4C1.750
%
G90
G05
T2
X96.34Y-92.0
X106.5Y-92.0
X116.0Y-65.84
X116.0Y-76.0
X135.0Y-65.84
X135.0Y-76.0
T3
X86.46Y-68.5
X89.0Y-68.5
X96.96Y-68.5
X99.5Y-68.5
X106.23Y-69.0
X108.77Y-69.0
X115.96Y-79.5
X118.5Y-79.5
X132.5Y-79.5
X135.04Y-79.5
T4
X85.5Y-78.69
X85.5Y-83.5
X85.5Y-92.0
X88.0Y-61.0
X98.0Y-61.0
X107.5Y-61.0
X112.3Y-92.0
X116.0Y-61.0
X117.3Y-92.0
X122.3Y-92.0
X124.0Y-61.0
X128.9Y-92.2
X133.9Y-92.2
X135.0Y-61.0
X138.9Y-92.2
T1
G00X90.8Y-79.5
M15
G01X92.2Y-79.5
M16
G05
G00X90.8Y-83.5
M15
G01X92.2Y-83.5
M16
G05
T3
G00X98.6Y-76.5
M15
G01X97.4Y-76.5
M16
G05
G00X98.6Y-81.2
M15
G01X97.4Y-81.2
M16
G05
G00X98.6Y-85.9
M15
G01X97.4Y-85.9
M16
G05
G00X106.6Y-76.6
M15
G01X105.4Y-76.6
M16
G05
G00X106.6Y-81.3
M15
G01X105.4Y-81.3
M16
G05
G00X106.6Y-86.0
M15
G01X105.4Y-86.0
M16
G05
G00X112.6Y-84.4
M15
G01X112.6Y-85.6
M16
G05
G00X117.3Y-84.4
M15
G01X117.3Y-85.6
M16
G05
G00X122.0Y-84.4
M15
G01X122.0Y-85.6
M16
G05
G00X129.0Y-83.9
M15
G01X129.0Y-85.1
M16
G05
G00X133.7Y-83.9
M15
G01X133.7Y-85.1
M16
G05
G00X138.4Y-83.9
M15
G01X138.4Y-85.1
M16
G05
M30
